<mxfile host="app.diagrams.net" modified="2025-08-03T00:00:00.000Z" agent="5.0" etag="engine_architecture_v1" version="24.6.4" type="device">
  <diagram name="Engine Architecture" id="engine-arch">
    <mxGraphModel dx="1422" dy="954" grid="1" gridSize="10" guides="1" tooltips="1" connect="1" arrows="1" fold="1" page="1" pageScale="1" pageWidth="827" pageHeight="1169" math="0" shadow="0">
      <root>
        <mxCell id="0" />
        <mxCell id="1" parent="0" />
        
        <!-- Title -->
        <mxCell id="title" value="Rusteroids Engine Architecture" style="text;html=1;strokeColor=none;fillColor=none;align=center;verticalAlign=middle;whiteSpace=wrap;rounded=0;fontSize=18;fontStyle=1" vertex="1" parent="1">
          <mxGeometry x="280" y="20" width="280" height="30" as="geometry" />
        </mxCell>
        
        <!-- Application Layer -->
        <mxCell id="app_layer" value="Application Layer (Asteroids Game)" style="rounded=1;whiteSpace=wrap;html=1;fillColor=#e1d5e7;strokeColor=#9673a6;fontStyle=1;fontSize=14" vertex="1" parent="1">
          <mxGeometry x="100" y="80" width="600" height="40" as="geometry" />
        </mxCell>
        
        <!-- Application Components -->
        <mxCell id="game_state" value="Game State&#xa;Management" style="rounded=0;whiteSpace=wrap;html=1;fillColor=#f3e2f3;strokeColor=#9673a6" vertex="1" parent="1">
          <mxGeometry x="120" y="140" width="80" height="50" as="geometry" />
        </mxCell>
        
        <mxCell id="asteroids_components" value="Asteroids&#xa;Components" style="rounded=0;whiteSpace=wrap;html=1;fillColor=#f3e2f3;strokeColor=#9673a6" vertex="1" parent="1">
          <mxGeometry x="220" y="140" width="80" height="50" as="geometry" />
        </mxCell>
        
        <mxCell id="game_systems" value="Game&#xa;Systems" style="rounded=0;whiteSpace=wrap;html=1;fillColor=#f3e2f3;strokeColor=#9673a6" vertex="1" parent="1">
          <mxGeometry x="320" y="140" width="80" height="50" as="geometry" />
        </mxCell>
        
        <mxCell id="ui_menus" value="UI &amp;&#xa;Menus" style="rounded=0;whiteSpace=wrap;html=1;fillColor=#f3e2f3;strokeColor=#9673a6" vertex="1" parent="1">
          <mxGeometry x="420" y="140" width="80" height="50" as="geometry" />
        </mxCell>
        
        <mxCell id="game_assets" value="Game&#xa;Assets" style="rounded=0;whiteSpace=wrap;html=1;fillColor=#f3e2f3;strokeColor=#9673a6" vertex="1" parent="1">
          <mxGeometry x="520" y="140" width="80" height="50" as="geometry" />
        </mxCell>
        
        <mxCell id="game_config" value="Game&#xa;Config" style="rounded=0;whiteSpace=wrap;html=1;fillColor=#f3e2f3;strokeColor=#9673a6" vertex="1" parent="1">
          <mxGeometry x="620" y="140" width="80" height="50" as="geometry" />
        </mxCell>
        
        <!-- Interface Layer -->
        <mxCell id="interface_layer" value="Engine API (Trait Interfaces)" style="rounded=1;whiteSpace=wrap;html=1;fillColor=#fff2cc;strokeColor=#d6b656;fontStyle=1;fontSize=14" vertex="1" parent="1">
          <mxGeometry x="100" y="220" width="600" height="40" as="geometry" />
        </mxCell>
        
        <!-- Interface Traits -->
        <mxCell id="app_trait" value="Application&#xa;Trait" style="rounded=0;whiteSpace=wrap;html=1;fillColor=#fffacc;strokeColor=#d6b656" vertex="1" parent="1">
          <mxGeometry x="120" y="280" width="80" height="40" as="geometry" />
        </mxCell>
        
        <mxCell id="asset_trait" value="Asset&#xa;Traits" style="rounded=0;whiteSpace=wrap;html=1;fillColor=#fffacc;strokeColor=#d6b656" vertex="1" parent="1">
          <mxGeometry x="220" y="280" width="80" height="40" as="geometry" />
        </mxCell>
        
        <mxCell id="config_trait" value="Config&#xa;Traits" style="rounded=0;whiteSpace=wrap;html=1;fillColor=#fffacc;strokeColor=#d6b656" vertex="1" parent="1">
          <mxGeometry x="320" y="280" width="80" height="40" as="geometry" />
        </mxCell>
        
        <mxCell id="render_trait" value="Render&#xa;Traits" style="rounded=0;whiteSpace=wrap;html=1;fillColor=#fffacc;strokeColor=#d6b656" vertex="1" parent="1">
          <mxGeometry x="420" y="280" width="80" height="40" as="geometry" />
        </mxCell>
        
        <mxCell id="system_trait" value="System&#xa;Traits" style="rounded=0;whiteSpace=wrap;html=1;fillColor=#fffacc;strokeColor=#d6b656" vertex="1" parent="1">
          <mxGeometry x="520" y="280" width="80" height="40" as="geometry" />
        </mxCell>
        
        <mxCell id="plugin_trait" value="Plugin&#xa;Traits" style="rounded=0;whiteSpace=wrap;html=1;fillColor=#fffacc;strokeColor=#d6b656" vertex="1" parent="1">
          <mxGeometry x="620" y="280" width="80" height="40" as="geometry" />
        </mxCell>
        
        <!-- Engine Core Layer -->
        <mxCell id="engine_layer" value="Engine Core (Generic Implementation)" style="rounded=1;whiteSpace=wrap;html=1;fillColor=#dae8fc;strokeColor=#6c8ebf;fontStyle=1;fontSize=14" vertex="1" parent="1">
          <mxGeometry x="100" y="350" width="600" height="40" as="geometry" />
        </mxCell>
        
        <!-- Engine Subsystems Row 1 -->
        <mxCell id="foundation" value="Foundation&#xa;(Math, Memory,&#xa;Threading)" style="rounded=0;whiteSpace=wrap;html=1;fillColor=#e6f2ff;strokeColor=#6c8ebf" vertex="1" parent="1">
          <mxGeometry x="110" y="410" width="90" height="60" as="geometry" />
        </mxCell>
        
        <mxCell id="ecs" value="ECS&#xa;Framework" style="rounded=0;whiteSpace=wrap;html=1;fillColor=#e6f2ff;strokeColor=#6c8ebf" vertex="1" parent="1">
          <mxGeometry x="220" y="410" width="90" height="60" as="geometry" />
        </mxCell>
        
        <mxCell id="assets" value="Asset&#xa;System" style="rounded=0;whiteSpace=wrap;html=1;fillColor=#e6f2ff;strokeColor=#6c8ebf" vertex="1" parent="1">
          <mxGeometry x="330" y="410" width="90" height="60" as="geometry" />
        </mxCell>
        
        <mxCell id="render" value="Rendering&#xa;Framework" style="rounded=0;whiteSpace=wrap;html=1;fillColor=#e6f2ff;strokeColor=#6c8ebf" vertex="1" parent="1">
          <mxGeometry x="440" y="410" width="90" height="60" as="geometry" />
        </mxCell>
        
        <mxCell id="input" value="Input&#xa;System" style="rounded=0;whiteSpace=wrap;html=1;fillColor=#e6f2ff;strokeColor=#6c8ebf" vertex="1" parent="1">
          <mxGeometry x="550" y="410" width="90" height="60" as="geometry" />
        </mxCell>
        
        <!-- Engine Subsystems Row 2 -->
        <mxCell id="audio" value="Audio&#xa;System" style="rounded=0;whiteSpace=wrap;html=1;fillColor=#e6f2ff;strokeColor=#6c8ebf" vertex="1" parent="1">
          <mxGeometry x="110" y="490" width="90" height="60" as="geometry" />
        </mxCell>
        
        <mxCell id="physics" value="Physics&#xa;Integration" style="rounded=0;whiteSpace=wrap;html=1;fillColor=#e6f2ff;strokeColor=#6c8ebf" vertex="1" parent="1">
          <mxGeometry x="220" y="490" width="90" height="60" as="geometry" />
        </mxCell>
        
        <mxCell id="scene" value="Scene&#xa;Management" style="rounded=0;whiteSpace=wrap;html=1;fillColor=#e6f2ff;strokeColor=#6c8ebf" vertex="1" parent="1">
          <mxGeometry x="330" y="490" width="90" height="60" as="geometry" />
        </mxCell>
        
        <mxCell id="networking" value="Networking&#xa;(Future)" style="rounded=0;whiteSpace=wrap;html=1;fillColor=#e6f2ff;strokeColor=#6c8ebf;dashed=1" vertex="1" parent="1">
          <mxGeometry x="440" y="490" width="90" height="60" as="geometry" />
        </mxCell>
        
        <mxCell id="scripting" value="Scripting&#xa;(Future)" style="rounded=0;whiteSpace=wrap;html=1;fillColor=#e6f2ff;strokeColor=#6c8ebf;dashed=1" vertex="1" parent="1">
          <mxGeometry x="550" y="490" width="90" height="60" as="geometry" />
        </mxCell>
        
        <!-- Platform Layer -->
        <mxCell id="platform_layer" value="Platform Layer" style="rounded=1;whiteSpace=wrap;html=1;fillColor=#f8cecc;strokeColor=#b85450;fontStyle=1;fontSize=14" vertex="1" parent="1">
          <mxGeometry x="100" y="580" width="600" height="40" as="geometry" />
        </mxCell>
        
        <!-- Platform Components -->
        <mxCell id="vulkan" value="Vulkan&#xa;API" style="rounded=0;whiteSpace=wrap;html=1;fillColor=#fce8e6;strokeColor=#b85450" vertex="1" parent="1">
          <mxGeometry x="140" y="640" width="80" height="40" as="geometry" />
        </mxCell>
        
        <mxCell id="glfw" value="GLFW&#xa;Windowing" style="rounded=0;whiteSpace=wrap;html=1;fillColor=#fce8e6;strokeColor=#b85450" vertex="1" parent="1">
          <mxGeometry x="240" y="640" width="80" height="40" as="geometry" />
        </mxCell>
        
        <mxCell id="openal" value="OpenAL&#xa;Audio" style="rounded=0;whiteSpace=wrap;html=1;fillColor=#fce8e6;strokeColor=#b85450" vertex="1" parent="1">
          <mxGeometry x="340" y="640" width="80" height="40" as="geometry" />
        </mxCell>
        
        <mxCell id="os_apis" value="OS APIs&#xa;(File, Network)" style="rounded=0;whiteSpace=wrap;html=1;fillColor=#fce8e6;strokeColor=#b85450" vertex="1" parent="1">
          <mxGeometry x="440" y="640" width="80" height="40" as="geometry" />
        </mxCell>
        
        <mxCell id="third_party" value="Third-party&#xa;Libraries" style="rounded=0;whiteSpace=wrap;html=1;fillColor=#fce8e6;strokeColor=#b85450" vertex="1" parent="1">
          <mxGeometry x="540" y="640" width="80" height="40" as="geometry" />
        </mxCell>
        
        <!-- Data Flow Arrows -->
        <mxCell id="flow1" style="edgeStyle=orthogonalEdgeStyle;rounded=0;orthogonalLoop=1;jettySize=auto;html=1;strokeWidth=2;fillColor=#e1d5e7;strokeColor=#9673a6" edge="1" parent="1" source="app_layer" target="interface_layer">
          <mxGeometry relative="1" as="geometry" />
        </mxCell>
        
        <mxCell id="flow2" style="edgeStyle=orthogonalEdgeStyle;rounded=0;orthogonalLoop=1;jettySize=auto;html=1;strokeWidth=2;fillColor=#fff2cc;strokeColor=#d6b656" edge="1" parent="1" source="interface_layer" target="engine_layer">
          <mxGeometry relative="1" as="geometry" />
        </mxCell>
        
        <mxCell id="flow3" style="edgeStyle=orthogonalEdgeStyle;rounded=0;orthogonalLoop=1;jettySize=auto;html=1;strokeWidth=2;fillColor=#dae8fc;strokeColor=#6c8ebf" edge="1" parent="1" source="engine_layer" target="platform_layer">
          <mxGeometry relative="1" as="geometry" />
        </mxCell>
        
        <!-- Component connections (Application to Interface) -->
        <mxCell id="app_conn1" style="edgeStyle=orthogonalEdgeStyle;rounded=0;orthogonalLoop=1;jettySize=auto;html=1;strokeWidth=1;fillColor=#f3e2f3;strokeColor=#9673a6" edge="1" parent="1" source="game_state" target="app_trait">
          <mxGeometry relative="1" as="geometry" />
        </mxCell>
        
        <mxCell id="app_conn2" style="edgeStyle=orthogonalEdgeStyle;rounded=0;orthogonalLoop=1;jettySize=auto;html=1;strokeWidth=1;fillColor=#f3e2f3;strokeColor=#9673a6" edge="1" parent="1" source="game_assets" target="asset_trait">
          <mxGeometry relative="1" as="geometry">
            <Array as="points">
              <mxPoint x="560" y="250" />
              <mxPoint x="260" y="250" />
            </Array>
          </mxGeometry>
        </mxCell>
        
        <mxCell id="app_conn3" style="edgeStyle=orthogonalEdgeStyle;rounded=0;orthogonalLoop=1;jettySize=auto;html=1;strokeWidth=1;fillColor=#f3e2f3;strokeColor=#9673a6" edge="1" parent="1" source="game_config" target="config_trait">
          <mxGeometry relative="1" as="geometry">
            <Array as="points">
              <mxPoint x="660" y="250" />
              <mxPoint x="360" y="250" />
            </Array>
          </mxGeometry>
        </mxCell>
        
        <!-- Interface to Engine connections -->
        <mxCell id="eng_conn1" style="edgeStyle=orthogonalEdgeStyle;rounded=0;orthogonalLoop=1;jettySize=auto;html=1;strokeWidth=1;fillColor=#fffacc;strokeColor=#d6b656" edge="1" parent="1" source="asset_trait" target="assets">
          <mxGeometry relative="1" as="geometry">
            <Array as="points">
              <mxPoint x="260" y="340" />
              <mxPoint x="375" y="340" />
            </Array>
          </mxGeometry>
        </mxCell>
        
        <mxCell id="eng_conn2" style="edgeStyle=orthogonalEdgeStyle;rounded=0;orthogonalLoop=1;jettySize=auto;html=1;strokeWidth=1;fillColor=#fffacc;strokeColor=#d6b656" edge="1" parent="1" source="render_trait" target="render">
          <mxGeometry relative="1" as="geometry">
            <Array as="points">
              <mxPoint x="460" y="340" />
              <mxPoint x="485" y="340" />
            </Array>
          </mxGeometry>
        </mxCell>
        
        <mxCell id="eng_conn3" style="edgeStyle=orthogonalEdgeStyle;rounded=0;orthogonalLoop=1;jettySize=auto;html=1;strokeWidth=1;fillColor=#fffacc;strokeColor=#d6b656" edge="1" parent="1" source="system_trait" target="ecs">
          <mxGeometry relative="1" as="geometry">
            <Array as="points">
              <mxPoint x="560" y="340" />
              <mxPoint x="265" y="340" />
            </Array>
          </mxGeometry>
        </mxCell>
        
        <!-- Engine to Platform connections -->
        <mxCell id="plat_conn1" style="edgeStyle=orthogonalEdgeStyle;rounded=0;orthogonalLoop=1;jettySize=auto;html=1;strokeWidth=1;fillColor=#e6f2ff;strokeColor=#6c8ebf" edge="1" parent="1" source="render" target="vulkan">
          <mxGeometry relative="1" as="geometry">
            <Array as="points">
              <mxPoint x="485" y="610" />
              <mxPoint x="180" y="610" />
            </Array>
          </mxGeometry>
        </mxCell>
        
        <mxCell id="plat_conn2" style="edgeStyle=orthogonalEdgeStyle;rounded=0;orthogonalLoop=1;jettySize=auto;html=1;strokeWidth=1;fillColor=#e6f2ff;strokeColor=#6c8ebf" edge="1" parent="1" source="input" target="glfw">
          <mxGeometry relative="1" as="geometry">
            <Array as="points">
              <mxPoint x="595" y="610" />
              <mxPoint x="280" y="610" />
            </Array>
          </mxGeometry>
        </mxCell>
        
        <mxCell id="plat_conn3" style="edgeStyle=orthogonalEdgeStyle;rounded=0;orthogonalLoop=1;jettySize=auto;html=1;strokeWidth=1;fillColor=#e6f2ff;strokeColor=#6c8ebf" edge="1" parent="1" source="audio" target="openal">
          <mxGeometry relative="1" as="geometry">
            <Array as="points">
              <mxPoint x="155" y="570" />
              <mxPoint x="380" y="570" />
            </Array>
          </mxGeometry>
        </mxCell>
        
        <!-- Plugin System (Side) -->
        <mxCell id="plugin_system" value="Plugin System" style="rounded=1;whiteSpace=wrap;html=1;fillColor=#d5e8d4;strokeColor=#82b366;fontStyle=1" vertex="1" parent="1">
          <mxGeometry x="750" y="300" width="120" height="40" as="geometry" />
        </mxCell>
        
        <mxCell id="debug_plugin" value="Debug&#xa;Renderer" style="rounded=0;whiteSpace=wrap;html=1;fillColor=#eaf4ea;strokeColor=#82b366" vertex="1" parent="1">
          <mxGeometry x="750" y="360" width="60" height="40" as="geometry" />
        </mxCell>
        
        <mxCell id="imgui_plugin" value="ImGui&#xa;Plugin" style="rounded=0;whiteSpace=wrap;html=1;fillColor=#eaf4ea;strokeColor=#82b366" vertex="1" parent="1">
          <mxGeometry x="820" y="360" width="60" height="40" as="geometry" />
        </mxCell>
        
        <mxCell id="console_plugin" value="Console&#xa;Plugin" style="rounded=0;whiteSpace=wrap;html=1;fillColor=#eaf4ea;strokeColor=#82b366" vertex="1" parent="1">
          <mxGeometry x="750" y="410" width="60" height="40" as="geometry" />
        </mxCell>
        
        <mxCell id="profiler_plugin" value="Profiler&#xa;Plugin" style="rounded=0;whiteSpace=wrap;html=1;fillColor=#eaf4ea;strokeColor=#82b366" vertex="1" parent="1">
          <mxGeometry x="820" y="410" width="60" height="40" as="geometry" />
        </mxCell>
        
        <!-- Plugin connections -->
        <mxCell id="plugin_conn" style="edgeStyle=orthogonalEdgeStyle;rounded=0;orthogonalLoop=1;jettySize=auto;html=1;strokeWidth=1;fillColor=#d5e8d4;strokeColor=#82b366" edge="1" parent="1" source="plugin_trait" target="plugin_system">
          <mxGeometry relative="1" as="geometry" />
        </mxCell>
        
        <!-- Separation Lines -->
        <mxCell id="sep1" style="edgeStyle=none;rounded=0;orthogonalLoop=1;jettySize=auto;html=1;strokeWidth=3;strokeColor=#666666;dashed=1" edge="1" parent="1">
          <mxGeometry x="50" y="200" width="750" height="10" as="geometry">
            <mxPoint x="50" y="205" as="sourcePoint" />
            <mxPoint x="800" y="205" as="targetPoint" />
          </mxGeometry>
        </mxCell>
        
        <mxCell id="sep2" style="edgeStyle=none;rounded=0;orthogonalLoop=1;jettySize=auto;html=1;strokeWidth=3;strokeColor=#666666;dashed=1" edge="1" parent="1">
          <mxGeometry x="50" y="330" width="750" height="10" as="geometry">
            <mxPoint x="50" y="335" as="sourcePoint" />
            <mxPoint x="800" y="335" as="targetPoint" />
          </mxGeometry>
        </mxCell>
        
        <mxCell id="sep3" style="edgeStyle=none;rounded=0;orthogonalLoop=1;jettySize=auto;html=1;strokeWidth=3;strokeColor=#666666;dashed=1" edge="1" parent="1">
          <mxGeometry x="50" y="565" width="750" height="10" as="geometry">
            <mxPoint x="50" y="570" as="sourcePoint" />
            <mxPoint x="800" y="570" as="targetPoint" />
          </mxGeometry>
        </mxCell>
        
        <!-- Legend -->
        <mxCell id="legend_title" value="Architecture Principles:" style="text;html=1;strokeColor=none;fillColor=none;align=left;verticalAlign=middle;whiteSpace=wrap;rounded=0;fontSize=12;fontStyle=1" vertex="1" parent="1">
          <mxGeometry x="50" y="720" width="150" height="20" as="geometry" />
        </mxCell>
        
        <mxCell id="principles" value="• Application implements Engine traits&#xa;• Engine provides generic functionality&#xa;• Clean separation via interface layer&#xa;• Plugin system for extensibility&#xa;• Platform abstraction for portability&#xa;• Zero-cost abstractions where possible" style="text;html=1;strokeColor=#d6b656;fillColor=#fff2cc;align=left;verticalAlign=top;whiteSpace=wrap;rounded=1;fontSize=10" vertex="1" parent="1">
          <mxGeometry x="50" y="750" width="350" height="120" as="geometry" />
        </mxCell>
        
        <!-- Benefits -->
        <mxCell id="benefits_title" value="Benefits of This Architecture:" style="text;html=1;strokeColor=none;fillColor=none;align=left;verticalAlign=middle;whiteSpace=wrap;rounded=0;fontSize=12;fontStyle=1" vertex="1" parent="1">
          <mxGeometry x="450" y="720" width="180" height="20" as="geometry" />
        </mxCell>
        
        <mxCell id="benefits" value="• Engine reusable for other games&#xa;• Clear testing boundaries&#xa;• Independent development of layers&#xa;• Easy to add new features&#xa;• Platform-independent game logic&#xa;• Modular compilation&#xa;• Hot-reloadable plugins" style="text;html=1;strokeColor=#82b366;fillColor=#d5e8d4;align=left;verticalAlign=top;whiteSpace=wrap;rounded=1;fontSize=10" vertex="1" parent="1">
          <mxGeometry x="450" y="750" width="320" height="120" as="geometry" />
        </mxCell>
      </root>
    </mxGraphModel>
  </diagram>
</mxfile>
